<svg width="35" height="28" viewBox="0 0 35 28" fill="none" xmlns="http://www.w3.org/2000/svg">
<path d="M13.3 18.1031C13.3 18.3364 13.3778 18.5114 13.5333 18.6281C13.6889 18.7448 13.8444 18.8031 14 18.8031C14.1556 18.8031 14.3111 18.7448 14.4667 18.6281C14.6222 18.5114 14.7 18.3559 14.7 18.1614C14.7 17.967 14.6222 17.8114 14.4667 17.6948C14.3111 17.5781 14.1556 17.5198 14 17.5198C13.8444 17.5198 13.6889 17.5781 13.5333 17.6948C13.3778 17.8114 13.3 17.9475 13.3 18.1031ZM16.8 18.1031C16.8 18.3364 16.8778 18.5114 17.0333 18.6281C17.1889 18.7448 17.3444 18.8031 17.5 18.8031C17.6556 18.8031 17.8111 18.7448 17.9667 18.6281C18.1222 18.5114 18.2 18.3559 18.2 18.1614C18.2 17.967 18.1222 17.8114 17.9667 17.6948C17.8111 17.5781 17.6556 17.5198 17.5 17.5198C17.3444 17.5198 17.1889 17.5781 17.0333 17.6948C16.8778 17.8114 16.8 17.9475 16.8 18.1031ZM20.3 18.1031C20.3 18.3364 20.3778 18.5114 20.5333 18.6281C20.6889 18.7448 20.8444 18.8031 21 18.8031C21.1556 18.8031 21.3111 18.7448 21.4667 18.6281C21.6222 18.5114 21.7 18.3559 21.7 18.1614C21.7 17.967 21.6222 17.8114 21.4667 17.6948C21.3111 17.5781 21.1556 17.5198 21 17.5198C20.8444 17.5198 20.6889 17.5781 20.5333 17.6948C20.3778 17.8114 20.3 17.9475 20.3 18.1031ZM6.53333 18.8031C5.6 18.8031 4.74444 18.5503 3.96667 18.0448C3.18889 17.5392 2.625 16.8586 2.275 16.0031C1.925 15.1475 1.84722 14.2531 2.04167 13.3198C2.23611 12.3864 2.66389 11.5892 3.325 10.9281C3.98611 10.267 4.76389 9.85865 5.65833 9.70309C6.55278 9.54754 7.42778 9.64476 8.28333 9.99476C9.13889 10.3448 9.83889 10.9086 10.3833 11.6864C10.9278 12.4642 11.2 13.3198 11.2 14.2531C11.2 15.4975 10.7528 16.567 9.85833 17.4614C8.96389 18.3559 7.85556 18.8031 6.53333 18.8031ZM6.53333 10.9864C5.91111 10.9864 5.32778 11.1614 4.78333 11.5114C4.23889 11.8614 3.83056 12.3475 3.55833 12.9698C3.28611 13.592 3.22778 14.2336 3.38333 14.8948C3.53889 15.5559 3.85 16.1003 4.31667 16.5281C4.78333 16.9559 5.32778 17.2475 5.95 17.4031C6.57222 17.5586 7.19444 17.5003 7.81667 17.2281C8.43889 16.9559 8.925 16.5475 9.275 16.0031C9.625 15.4586 9.8 14.8753 9.8 14.2531C9.8 13.3198 9.48889 12.542 8.86667 11.9198C8.24444 11.2975 7.46667 10.9864 6.53333 10.9864ZM12.4833 27.0864H0.7C0.466667 27.0864 0.291667 27.0281 0.175 26.9114C0.0583333 26.7948 0 26.6198 0 26.3864V24.0531C0 22.2642 0.641667 20.7281 1.925 19.4448C3.20833 18.1614 4.76389 17.5198 6.59167 17.5198C8.41944 17.5198 9.95556 18.1614 11.2 19.4448C12.4444 20.7281 13.1056 22.2642 13.1833 24.0531V26.3864C13.1833 26.6198 13.1056 26.7948 12.95 26.9114C12.7944 27.0281 12.6389 27.0864 12.4833 27.0864ZM1.4 25.6864H11.7833V24.0531C11.7833 22.6531 11.2778 21.4475 10.2667 20.4364C9.25556 19.4253 8.03056 18.9198 6.59167 18.9198C5.15278 18.9198 3.92778 19.4253 2.91667 20.4364C1.90556 21.4475 1.4 22.6531 1.4 24.0531V25.6864ZM28.4667 18.8031C27.5333 18.8031 26.6778 18.5503 25.9 18.0448C25.1222 17.5392 24.5583 16.8586 24.2083 16.0031C23.8583 15.1475 23.7611 14.2531 23.9167 13.3198C24.0722 12.3864 24.4806 11.5892 25.1417 10.9281C25.8028 10.267 26.6 9.85865 27.5333 9.70309C28.4667 9.54754 29.3611 9.64476 30.2167 9.99476C31.0722 10.3448 31.7528 10.9086 32.2583 11.6864C32.7639 12.4642 33.0167 13.3198 33.0167 14.2531C33.0167 15.4975 32.5694 16.567 31.675 17.4614C30.7806 18.3559 29.7111 18.8031 28.4667 18.8031ZM28.4667 10.9864C27.7667 10.9864 27.1444 11.1614 26.6 11.5114C26.0556 11.8614 25.6667 12.3475 25.4333 12.9698C25.2 13.592 25.1417 14.2336 25.2583 14.8948C25.375 15.5559 25.6667 16.1003 26.1333 16.5281C26.6 16.9559 27.1639 17.2475 27.825 17.4031C28.4861 17.5586 29.1083 17.5003 29.6917 17.2281C30.275 16.9559 30.7417 16.5475 31.0917 16.0031C31.4417 15.4586 31.6167 14.8753 31.6167 14.2531C31.6167 13.3198 31.3056 12.542 30.6833 11.9198C30.0611 11.2975 29.3222 10.9864 28.4667 10.9864ZM34.3 27.0864H22.5167C22.3611 27.0864 22.2056 27.0281 22.05 26.9114C21.8944 26.7948 21.8167 26.6198 21.8167 26.3864V24.0531C21.8944 22.2642 22.5556 20.7281 23.8 19.4448C25.0444 18.1614 26.5806 17.5198 28.4083 17.5198C30.2361 17.5198 31.7917 18.1614 33.075 19.4448C34.3583 20.7281 35 22.2642 35 24.0531V26.3864C35 26.6198 34.9417 26.7948 34.825 26.9114C34.7083 27.0281 34.5333 27.0864 34.3 27.0864ZM23.2167 25.6864H33.6V24.0531C33.6 22.6531 33.0944 21.4475 32.0833 20.4364C31.0722 19.4253 29.8472 18.9198 28.4083 18.9198C26.9694 18.9198 25.7444 19.4253 24.7333 20.4364C23.7222 21.4475 23.2167 22.6531 23.2167 24.0531V25.6864ZM14.35 14.0198C14.1944 14.0198 14.0389 13.9614 13.8833 13.8448C13.7278 13.7281 13.65 13.592 13.65 13.4364V11.3364H13.0667C12.4444 11.3364 11.9 11.1225 11.4333 10.6948C10.9667 10.267 10.7333 9.74198 10.7333 9.11976V2.46976C10.7333 1.84754 10.9667 1.32254 11.4333 0.894758C11.9 0.466982 12.4444 0.253092 13.0667 0.253092H21.8167C22.4389 0.253092 22.9639 0.466982 23.3917 0.894758C23.8194 1.32254 24.0333 1.84754 24.0333 2.46976V9.11976C24.0333 9.74198 23.8194 10.267 23.3917 10.6948C22.9639 11.1225 22.4389 11.3364 21.8167 11.3364H17.3833L14.8167 13.9031C14.7389 14.0586 14.5833 14.0975 14.35 14.0198ZM13.0667 1.65309C12.8333 1.65309 12.6194 1.73087 12.425 1.88643C12.2306 2.04198 12.1333 2.23643 12.1333 2.46976V9.11976C12.1333 9.35309 12.2306 9.56698 12.425 9.76143C12.6194 9.95587 12.8333 10.0531 13.0667 10.0531H14.35C14.5833 10.0531 14.7583 10.1114 14.875 10.2281C14.9917 10.3448 15.05 10.4809 15.05 10.6364V11.6864L16.5667 10.1698C16.7222 10.092 16.8778 10.0531 17.0333 10.0531H21.8167C22.05 10.0531 22.2639 9.95587 22.4583 9.76143C22.6528 9.56698 22.75 9.35309 22.75 9.11976V2.46976C22.75 2.23643 22.6528 2.04198 22.4583 1.88643C22.2639 1.73087 22.05 1.65309 21.8167 1.65309H13.0667Z" fill="#1A1A1A"/>
</svg>
