<svg width="20" height="15" viewBox="0 0 20 15" fill="none" xmlns="http://www.w3.org/2000/svg">
<path d="M17.5333 3.71689H8.73333C8.28889 3.71689 7.86667 3.85023 7.46667 4.11689C7.37778 3.45023 7.1 2.90578 6.63333 2.48356C6.16667 2.06134 5.62222 1.85023 5 1.85023C4.51111 1.85023 4.06667 1.96134 3.66667 2.18356V1.18356C3.66667 1.00578 3.61111 0.861339 3.5 0.750227C3.38889 0.639116 3.24444 0.583561 3.06667 0.583561H0.6C0.422222 0.583561 0.277778 0.639116 0.166667 0.750227C0.0555556 0.861339 0 1.00578 0 1.18356V13.7169C0 13.8947 0.0555556 14.0391 0.166667 14.1502C0.277778 14.2613 0.422222 14.3169 0.6 14.3169H3.06667C3.24444 14.3169 3.38889 14.2613 3.5 14.1502C3.61111 14.0391 3.66667 13.8947 3.66667 13.7169V11.7836H16.3333V13.7169C16.3333 13.8947 16.3889 14.0391 16.5 14.1502C16.6111 14.2613 16.7556 14.3169 16.9333 14.3169H19.4C19.5778 14.3169 19.7222 14.2613 19.8333 14.1502C19.9444 14.0391 20 13.8947 20 13.7169V6.18356C20 5.51689 19.7556 4.93912 19.2667 4.45023C18.7778 3.96134 18.2 3.71689 17.5333 3.71689ZM5 2.98356C5.35556 2.98356 5.65556 3.11689 5.9 3.38356C6.14444 3.65023 6.26667 3.96134 6.26667 4.31689C6.26667 4.67245 6.14444 4.97245 5.9 5.21689C5.65556 5.46134 5.35556 5.58356 5 5.58356C4.64444 5.58356 4.33333 5.46134 4.06667 5.21689C3.8 4.97245 3.66667 4.67245 3.66667 4.31689C3.66667 3.96134 3.8 3.65023 4.06667 3.38356C4.33333 3.11689 4.64444 2.98356 5 2.98356ZM3.66667 6.38356C4.06667 6.65023 4.5 6.78356 4.96667 6.78356C5.43333 6.78356 5.86667 6.65023 6.26667 6.38356V8.11689H3.66667V6.38356ZM18.8 13.1169H17.4667V11.1836C17.4667 11.0502 17.4111 10.928 17.3 10.8169C17.1889 10.7058 17.0667 10.6502 16.9333 10.6502H3.06667C2.93333 10.6502 2.81111 10.7058 2.7 10.8169C2.58889 10.928 2.53333 11.0502 2.53333 11.1836V13.1169H1.2V1.78356H2.53333V8.71689C2.53333 8.85023 2.58889 8.98356 2.7 9.11689C2.81111 9.25023 2.93333 9.31689 3.06667 9.31689H18.8V13.1169ZM18.8 8.11689H7.46667V6.18356C7.46667 5.828 7.58889 5.52801 7.83333 5.28356C8.07778 5.03912 8.37778 4.91689 8.73333 4.91689H17.5333C17.8889 4.91689 18.1889 5.03912 18.4333 5.28356C18.6778 5.52801 18.8 5.828 18.8 6.18356V8.11689Z" fill="#1A1A1A"/>
</svg>
