<svg width="21" height="21" viewBox="0 0 21 21" fill="none" xmlns="http://www.w3.org/2000/svg">
<g clip-path="url(#clip0_2_1184)">
<path d="M16.7766 19.2502H14.3766C14.2432 19.2502 14.1099 19.3169 13.9766 19.4502C13.8432 19.5835 13.7766 19.728 13.7766 19.8835C13.7766 20.0391 13.8432 20.1724 13.9766 20.2835C14.1099 20.3946 14.2432 20.4502 14.3766 20.4502H16.7766C16.9544 20.4502 17.0988 20.3946 17.2099 20.2835C17.321 20.1724 17.3766 20.0391 17.3766 19.8835C17.3766 19.728 17.321 19.5835 17.2099 19.4502C17.0988 19.3169 16.9544 19.2502 16.7766 19.2502ZM12.0432 19.2502H9.70991C9.53214 19.2502 9.38769 19.3169 9.27658 19.4502C9.16547 19.5835 9.10991 19.728 9.10991 19.8835C9.10991 20.0391 9.16547 20.1724 9.27658 20.2835C9.38769 20.3946 9.53214 20.4502 9.70991 20.4502H12.0432C12.221 20.4502 12.3655 20.3946 12.4766 20.2835C12.5877 20.1724 12.6432 20.0391 12.6432 19.8835C12.6432 19.728 12.5877 19.5835 12.4766 19.4502C12.3655 19.3169 12.221 19.2502 12.0432 19.2502ZM20.3099 8.6502C20.1766 8.6502 20.0432 8.70575 19.9099 8.81686C19.7766 8.92797 19.7099 9.07242 19.7099 9.25019V11.5835C19.7099 11.7613 19.7766 11.9058 19.9099 12.0169C20.0432 12.128 20.1877 12.1835 20.3432 12.1835C20.4988 12.1835 20.6321 12.128 20.7432 12.0169C20.8544 11.9058 20.9099 11.7613 20.9099 11.5835V9.25019C20.9099 9.07242 20.8544 8.92797 20.7432 8.81686C20.6321 8.70575 20.4877 8.6502 20.3099 8.6502ZM20.3099 13.3169C20.1766 13.3169 20.0432 13.3835 19.9099 13.5169C19.7766 13.6502 19.7099 13.7835 19.7099 13.9169V16.2502C19.7099 16.428 19.7766 16.5724 19.9099 16.6835C20.0432 16.7946 20.1877 16.8502 20.3432 16.8502C20.4988 16.8502 20.6321 16.7946 20.7432 16.6835C20.8544 16.5724 20.9099 16.428 20.9099 16.2502V13.9169C20.9099 13.7835 20.8544 13.6502 20.7432 13.5169C20.6321 13.3835 20.4877 13.3169 20.3099 13.3169ZM7.37658 19.2502H6.77658V18.7169C6.77658 18.5391 6.72102 18.3946 6.60991 18.2835C6.4988 18.1724 6.35436 18.1169 6.17658 18.1169C5.9988 18.1169 5.85436 18.1724 5.74325 18.2835C5.63213 18.3946 5.57658 18.5391 5.57658 18.7169V19.8502C5.57658 20.028 5.63213 20.1724 5.74325 20.2835C5.85436 20.3946 5.9988 20.4502 6.17658 20.4502H7.37658C7.50991 20.4502 7.63213 20.3946 7.74325 20.2835C7.85436 20.1724 7.90991 20.0391 7.90991 19.8835C7.90991 19.728 7.85436 19.5835 7.74325 19.4502C7.63213 19.3169 7.50991 19.2502 7.37658 19.2502ZM20.3099 5.11686H19.1766C18.9988 5.11686 18.8544 5.17242 18.7432 5.28353C18.6321 5.39464 18.5766 5.53908 18.5766 5.71686C18.5766 5.89464 18.6321 6.03908 18.7432 6.15019C18.8544 6.26131 18.9988 6.31686 19.1766 6.31686H19.7099V6.91686C19.7099 7.05019 19.7766 7.17242 19.9099 7.28353C20.0432 7.39464 20.1877 7.45019 20.3432 7.45019C20.4988 7.45019 20.6321 7.39464 20.7432 7.28353C20.8544 7.17242 20.9099 7.05019 20.9099 6.91686V5.71686C20.9099 5.53908 20.8544 5.39464 20.7432 5.28353C20.6321 5.17242 20.4877 5.11686 20.3099 5.11686ZM20.3099 18.1169C20.1766 18.1169 20.0432 18.1724 19.9099 18.2835C19.7766 18.3946 19.7099 18.5391 19.7099 18.7169V19.2502H19.1766C18.9988 19.2502 18.8544 19.3169 18.7432 19.4502C18.6321 19.5835 18.5766 19.728 18.5766 19.8835C18.5766 20.0391 18.6321 20.1724 18.7432 20.2835C18.8544 20.3946 18.9988 20.4502 19.1766 20.4502H20.3099C20.4877 20.4502 20.6321 20.3946 20.7432 20.2835C20.8544 20.1724 20.9099 20.028 20.9099 19.8502V18.7169C20.9099 18.5391 20.8544 18.3946 20.7432 18.2835C20.6321 18.1724 20.4877 18.1169 20.3099 18.1169ZM16.7766 5.11686H16.1766V1.05019C16.1766 0.872417 16.1099 0.727972 15.9766 0.616861C15.8432 0.505751 15.7099 0.450193 15.5766 0.450193H1.50991C1.33213 0.450193 1.18769 0.505751 1.07658 0.616861C0.965468 0.727972 0.909912 0.872417 0.909912 1.05019V15.1169C0.909912 15.2502 0.965468 15.3835 1.07658 15.5169C1.18769 15.6502 1.33213 15.7169 1.50991 15.7169H5.57658V16.2502C5.57658 16.428 5.63213 16.5724 5.74325 16.6835C5.85436 16.7946 5.9988 16.8502 6.17658 16.8502C6.35436 16.8502 6.4988 16.7946 6.60991 16.6835C6.72102 16.5724 6.77658 16.428 6.77658 16.2502V6.31686H16.7766C16.9544 6.31686 17.0988 6.26131 17.2099 6.15019C17.321 6.03908 17.3766 5.89464 17.3766 5.71686C17.3766 5.53908 17.321 5.39464 17.2099 5.28353C17.0988 5.17242 16.9544 5.11686 16.7766 5.11686ZM14.9766 5.11686H6.17658C5.9988 5.11686 5.85436 5.17242 5.74325 5.28353C5.63213 5.39464 5.57658 5.53908 5.57658 5.71686V14.5169H2.10991V1.65019H14.9766V5.11686Z" fill="#1A1A1A"/>
</g>
<defs>
<clipPath id="clip0_2_1184">
<rect width="20" height="20" fill="white" transform="matrix(1 0 0 -1 0.909912 20.4502)"/>
</clipPath>
</defs>
</svg>
