<svg width="21" height="21" viewBox="0 0 21 21" fill="none" xmlns="http://www.w3.org/2000/svg">
<path d="M20.95 10.5838C20.95 10.0949 20.7833 9.68377 20.45 9.35044C20.1166 9.0171 19.7055 8.85044 19.2166 8.85044H4.08328V3.45044C4.08328 3.00599 4.23884 2.62821 4.54995 2.3171C4.77217 2.09488 5.02773 1.96155 5.31662 1.9171C5.60551 1.87266 5.90551 1.89488 6.21662 1.98377C5.81662 2.60599 5.66106 3.29488 5.74995 4.05044C5.83884 4.80599 6.14995 5.45044 6.68328 5.98377L6.81662 6.18377C6.94995 6.27266 7.0944 6.3171 7.24995 6.3171C7.40551 6.3171 7.52773 6.27266 7.61662 6.18377L11.4166 2.38377C11.55 2.25044 11.6166 2.10599 11.6166 1.95044C11.6166 1.79488 11.55 1.65044 11.4166 1.5171L11.2833 1.38377C10.7055 0.805992 10.0055 0.494881 9.18328 0.450436C8.36106 0.405993 7.63884 0.628214 7.01662 1.1171C6.48328 0.805992 5.90551 0.683769 5.28328 0.750437C4.66106 0.817102 4.12773 1.07266 3.68328 1.5171C3.14995 2.05044 2.88328 2.69488 2.88328 3.45044V8.85044H2.68328C2.1944 8.85044 1.78328 9.0171 1.44995 9.35044C1.11662 9.68377 0.949951 10.0949 0.949951 10.5838C0.949951 10.9838 1.06106 11.3282 1.28328 11.6171C1.50551 11.906 1.77217 12.1171 2.08328 12.2504V13.5171C2.08328 14.5838 2.37217 15.5615 2.94995 16.4504C3.52773 17.3393 4.26106 18.0282 5.14995 18.5171L4.61662 19.5838C4.52773 19.7615 4.51662 19.9171 4.58328 20.0504C4.64995 20.1838 4.74995 20.2949 4.88328 20.3838C5.01662 20.4727 5.16106 20.4838 5.31662 20.4171C5.47217 20.3504 5.5944 20.2504 5.68328 20.1171L6.28328 18.9171C6.72773 19.006 7.1944 19.0504 7.68328 19.0504H14.2166C14.7055 19.0504 15.1722 19.006 15.6166 18.9171L16.2166 20.1171C16.3055 20.2504 16.4277 20.3504 16.5833 20.4171C16.7388 20.4838 16.8833 20.4727 17.0166 20.3838C17.15 20.2949 17.25 20.1838 17.3166 20.0504C17.3833 19.9171 17.3722 19.7615 17.2833 19.5838L16.75 18.5171C17.6388 18.0282 18.3722 17.3393 18.95 16.4504C19.5277 15.5615 19.8166 14.5838 19.8166 13.5171V12.2504C20.1277 12.1171 20.3944 11.906 20.6166 11.6171C20.8388 11.3282 20.95 10.9838 20.95 10.5838ZM10.15 1.98377L7.28328 4.9171C6.97217 4.47266 6.83884 4.00599 6.88329 3.5171C6.92773 3.02821 7.12773 2.60599 7.48328 2.25044C7.83884 1.89488 8.27217 1.69488 8.78329 1.65044C9.2944 1.60599 9.74995 1.7171 10.15 1.98377ZM2.68328 10.0504H19.2166C19.35 10.0504 19.4722 10.106 19.5833 10.2171C19.6944 10.3282 19.75 10.4615 19.75 10.6171C19.75 10.7727 19.6944 10.906 19.5833 11.0171C19.4722 11.1282 19.35 11.1838 19.2166 11.1838H2.68328C2.54995 11.1838 2.42773 11.1282 2.31662 11.0171C2.20551 10.906 2.14995 10.7727 2.14995 10.6171C2.14995 10.4615 2.20551 10.3282 2.31662 10.2171C2.42773 10.106 2.54995 10.0504 2.68328 10.0504ZM18.6166 13.5171C18.6166 14.3171 18.4166 15.0504 18.0166 15.7171C17.6166 16.3838 17.0833 16.9171 16.4166 17.3171C15.75 17.7171 15.0166 17.9171 14.2166 17.9171H7.68328C6.88329 17.9171 6.14995 17.7171 5.48328 17.3171C4.81662 16.9171 4.28328 16.3838 3.88328 15.7171C3.48328 15.0504 3.28328 14.3171 3.28328 13.5171V12.3838H18.6166V13.5171ZM9.41662 6.38377C9.41662 6.56155 9.47217 6.70599 9.58329 6.8171C9.6944 6.92821 9.82773 6.98377 9.98328 6.98377C10.1388 6.98377 10.2722 6.92821 10.3833 6.8171C10.4944 6.70599 10.55 6.56155 10.55 6.38377C10.55 6.20599 10.4944 6.06155 10.3833 5.95044C10.2722 5.83933 10.1388 5.78377 9.98328 5.78377C9.82773 5.78377 9.6944 5.83933 9.58329 5.95044C9.47217 6.06155 9.41662 6.20599 9.41662 6.38377ZM11.0833 4.7171C11.0833 4.89488 11.1388 5.03933 11.25 5.15044C11.3611 5.26155 11.4944 5.3171 11.65 5.3171C11.8055 5.3171 11.9388 5.26155 12.05 5.15044C12.1611 5.03933 12.2166 4.89488 12.2166 4.7171C12.2166 4.53933 12.1611 4.39488 12.05 4.28377C11.9388 4.17266 11.8055 4.1171 11.65 4.1171C11.4944 4.1171 11.3611 4.17266 11.25 4.28377C11.1388 4.39488 11.0833 4.53933 11.0833 4.7171ZM11.4833 6.78377C11.4833 6.9171 11.5388 7.05044 11.65 7.18377C11.7611 7.3171 11.8944 7.38377 12.05 7.38377C12.2055 7.38377 12.3388 7.3171 12.45 7.18377C12.5611 7.05044 12.6166 6.90599 12.6166 6.75044C12.6166 6.59488 12.5611 6.46155 12.45 6.35044C12.3388 6.23933 12.2055 6.18377 12.05 6.18377C11.8944 6.18377 11.7611 6.23933 11.65 6.35044C11.5388 6.46155 11.4833 6.60599 11.4833 6.78377Z" fill="#1A1A1A"/>
</svg>
