<svg width="21" height="21" viewBox="0 0 21 21" fill="none" xmlns="http://www.w3.org/2000/svg">
<path d="M20.95 10.4033C20.95 9.91446 20.7833 9.50335 20.45 9.17002C20.1166 8.83668 19.7055 8.67002 19.2166 8.67002H4.08328V3.27002C4.08328 2.82557 4.23884 2.44779 4.54995 2.13668C4.77217 1.91446 5.02773 1.78113 5.31662 1.73668C5.60551 1.69224 5.90551 1.71446 6.21662 1.80335C5.81662 2.42557 5.66106 3.11446 5.74995 3.87002C5.83884 4.62557 6.14995 5.27002 6.68328 5.80335L6.81662 6.00335C6.94995 6.09224 7.0944 6.13668 7.24995 6.13668C7.40551 6.13668 7.52773 6.09224 7.61662 6.00335L11.4166 2.20335C11.55 2.07002 11.6166 1.92557 11.6166 1.77002C11.6166 1.61446 11.55 1.47002 11.4166 1.33668L11.2833 1.20335C10.7055 0.625572 10.0055 0.314461 9.18328 0.270016C8.36106 0.225573 7.63884 0.447794 7.01662 0.936684C6.48328 0.625572 5.90551 0.503349 5.28328 0.570017C4.66106 0.636683 4.12773 0.892239 3.68328 1.33668C3.14995 1.87002 2.88328 2.51446 2.88328 3.27002V8.67002H2.68328C2.1944 8.67002 1.78328 8.83668 1.44995 9.17002C1.11662 9.50335 0.949951 9.91446 0.949951 10.4033C0.949951 10.8034 1.06106 11.1478 1.28328 11.4367C1.50551 11.7256 1.77217 11.9367 2.08328 12.07V13.3367C2.08328 14.4033 2.37217 15.3811 2.94995 16.27C3.52773 17.1589 4.26106 17.8478 5.14995 18.3367L4.61662 19.4034C4.52773 19.5811 4.51662 19.7367 4.58328 19.87C4.64995 20.0034 4.74995 20.1145 4.88328 20.2034C5.01662 20.2922 5.16106 20.3034 5.31662 20.2367C5.47217 20.17 5.5944 20.07 5.68328 19.9367L6.28328 18.7367C6.72773 18.8256 7.1944 18.87 7.68328 18.87H14.2166C14.7055 18.87 15.1722 18.8256 15.6166 18.7367L16.2166 19.9367C16.3055 20.07 16.4277 20.17 16.5833 20.2367C16.7388 20.3034 16.8833 20.2922 17.0166 20.2034C17.15 20.1145 17.25 20.0034 17.3166 19.87C17.3833 19.7367 17.3722 19.5811 17.2833 19.4034L16.75 18.3367C17.6388 17.8478 18.3722 17.1589 18.95 16.27C19.5277 15.3811 19.8166 14.4033 19.8166 13.3367V12.07C20.1277 11.9367 20.3944 11.7256 20.6166 11.4367C20.8388 11.1478 20.95 10.8034 20.95 10.4033ZM10.15 1.80335L7.28328 4.73668C6.97217 4.29224 6.83884 3.82557 6.88329 3.33668C6.92773 2.84779 7.12773 2.42557 7.48328 2.07002C7.83884 1.71446 8.27217 1.51446 8.78329 1.47002C9.2944 1.42557 9.74995 1.53668 10.15 1.80335ZM2.68328 9.87002H19.2166C19.35 9.87002 19.4722 9.92557 19.5833 10.0367C19.6944 10.1478 19.75 10.2811 19.75 10.4367C19.75 10.5922 19.6944 10.7256 19.5833 10.8367C19.4722 10.9478 19.35 11.0034 19.2166 11.0034H2.68328C2.54995 11.0034 2.42773 10.9478 2.31662 10.8367C2.20551 10.7256 2.14995 10.5922 2.14995 10.4367C2.14995 10.2811 2.20551 10.1478 2.31662 10.0367C2.42773 9.92557 2.54995 9.87002 2.68328 9.87002ZM18.6166 13.3367C18.6166 14.1367 18.4166 14.87 18.0166 15.5367C17.6166 16.2034 17.0833 16.7367 16.4166 17.1367C15.75 17.5367 15.0166 17.7367 14.2166 17.7367H7.68328C6.88329 17.7367 6.14995 17.5367 5.48328 17.1367C4.81662 16.7367 4.28328 16.2034 3.88328 15.5367C3.48328 14.87 3.28328 14.1367 3.28328 13.3367V12.2034H18.6166V13.3367ZM9.41662 6.20335C9.41662 6.38113 9.47217 6.52557 9.58329 6.63668C9.6944 6.74779 9.82773 6.80335 9.98328 6.80335C10.1388 6.80335 10.2722 6.74779 10.3833 6.63668C10.4944 6.52557 10.55 6.38113 10.55 6.20335C10.55 6.02557 10.4944 5.88113 10.3833 5.77002C10.2722 5.65891 10.1388 5.60335 9.98328 5.60335C9.82773 5.60335 9.6944 5.65891 9.58329 5.77002C9.47217 5.88113 9.41662 6.02557 9.41662 6.20335ZM11.0833 4.53668C11.0833 4.71446 11.1388 4.85891 11.25 4.97002C11.3611 5.08113 11.4944 5.13668 11.65 5.13668C11.8055 5.13668 11.9388 5.08113 12.05 4.97002C12.1611 4.85891 12.2166 4.71446 12.2166 4.53668C12.2166 4.35891 12.1611 4.21446 12.05 4.10335C11.9388 3.99224 11.8055 3.93668 11.65 3.93668C11.4944 3.93668 11.3611 3.99224 11.25 4.10335C11.1388 4.21446 11.0833 4.35891 11.0833 4.53668ZM11.4833 6.60335C11.4833 6.73668 11.5388 6.87002 11.65 7.00335C11.7611 7.13668 11.8944 7.20335 12.05 7.20335C12.2055 7.20335 12.3388 7.13668 12.45 7.00335C12.5611 6.87002 12.6166 6.72557 12.6166 6.57002C12.6166 6.41446 12.5611 6.28113 12.45 6.17002C12.3388 6.05891 12.2055 6.00335 12.05 6.00335C11.8944 6.00335 11.7611 6.05891 11.65 6.17002C11.5388 6.28113 11.4833 6.42557 11.4833 6.60335Z" fill="#1A1A1A"/>
</svg>
