<svg width="20" height="15" viewBox="0 0 20 15" fill="none" xmlns="http://www.w3.org/2000/svg">
<path d="M17.5333 3.53672H8.73333C8.28889 3.53672 7.86667 3.67005 7.46667 3.93672C7.37778 3.27005 7.1 2.72561 6.63333 2.30338C6.16667 1.88116 5.62222 1.67005 5 1.67005C4.51111 1.67005 4.06667 1.78116 3.66667 2.00338V1.00338C3.66667 0.825607 3.61111 0.681163 3.5 0.570051C3.38889 0.458941 3.24444 0.403385 3.06667 0.403385H0.6C0.422222 0.403385 0.277778 0.458941 0.166667 0.570051C0.0555556 0.681163 0 0.825607 0 1.00338V13.5367C0 13.7145 0.0555556 13.8589 0.166667 13.9701C0.277778 14.0812 0.422222 14.1367 0.6 14.1367H3.06667C3.24444 14.1367 3.38889 14.0812 3.5 13.9701C3.61111 13.8589 3.66667 13.7145 3.66667 13.5367V11.6034H16.3333V13.5367C16.3333 13.7145 16.3889 13.8589 16.5 13.9701C16.6111 14.0812 16.7556 14.1367 16.9333 14.1367H19.4C19.5778 14.1367 19.7222 14.0812 19.8333 13.9701C19.9444 13.8589 20 13.7145 20 13.5367V6.00338C20 5.33672 19.7556 4.75894 19.2667 4.27005C18.7778 3.78116 18.2 3.53672 17.5333 3.53672ZM5 2.80338C5.35556 2.80338 5.65556 2.93672 5.9 3.20338C6.14444 3.47005 6.26667 3.78116 6.26667 4.13672C6.26667 4.49227 6.14444 4.79227 5.9 5.03672C5.65556 5.28116 5.35556 5.40339 5 5.40339C4.64444 5.40339 4.33333 5.28116 4.06667 5.03672C3.8 4.79227 3.66667 4.49227 3.66667 4.13672C3.66667 3.78116 3.8 3.47005 4.06667 3.20338C4.33333 2.93672 4.64444 2.80338 5 2.80338ZM3.66667 6.20338C4.06667 6.47005 4.5 6.60338 4.96667 6.60338C5.43333 6.60338 5.86667 6.47005 6.26667 6.20338V7.93672H3.66667V6.20338ZM18.8 12.9367H17.4667V11.0034C17.4667 10.8701 17.4111 10.7478 17.3 10.6367C17.1889 10.5256 17.0667 10.4701 16.9333 10.4701H3.06667C2.93333 10.4701 2.81111 10.5256 2.7 10.6367C2.58889 10.7478 2.53333 10.8701 2.53333 11.0034V12.9367H1.2V1.60338H2.53333V8.53672C2.53333 8.67005 2.58889 8.80339 2.7 8.93672C2.81111 9.07005 2.93333 9.13672 3.06667 9.13672H18.8V12.9367ZM18.8 7.93672H7.46667V6.00338C7.46667 5.64783 7.58889 5.34783 7.83333 5.10338C8.07778 4.85894 8.37778 4.73672 8.73333 4.73672H17.5333C17.8889 4.73672 18.1889 4.85894 18.4333 5.10338C18.6778 5.34783 18.8 5.64783 18.8 6.00338V7.93672Z" fill="#1A1A1A"/>
</svg>
