<svg width="21" height="21" viewBox="0 0 21 21" fill="none" xmlns="http://www.w3.org/2000/svg">
<path d="M16.7766 19.07H14.3766C14.2432 19.07 14.1099 19.1367 13.9766 19.27C13.8432 19.4034 13.7766 19.5478 13.7766 19.7034C13.7766 19.8589 13.8432 19.9922 13.9766 20.1034C14.1099 20.2145 14.2432 20.27 14.3766 20.27H16.7766C16.9544 20.27 17.0988 20.2145 17.2099 20.1034C17.321 19.9922 17.3766 19.8589 17.3766 19.7034C17.3766 19.5478 17.321 19.4034 17.2099 19.27C17.0988 19.1367 16.9544 19.07 16.7766 19.07ZM12.0432 19.07H9.70991C9.53214 19.07 9.38769 19.1367 9.27658 19.27C9.16547 19.4034 9.10991 19.5478 9.10991 19.7034C9.10991 19.8589 9.16547 19.9922 9.27658 20.1034C9.38769 20.2145 9.53214 20.27 9.70991 20.27H12.0432C12.221 20.27 12.3655 20.2145 12.4766 20.1034C12.5877 19.9922 12.6432 19.8589 12.6432 19.7034C12.6432 19.5478 12.5877 19.4034 12.4766 19.27C12.3655 19.1367 12.221 19.07 12.0432 19.07ZM20.3099 8.47002C20.1766 8.47002 20.0432 8.52557 19.9099 8.63669C19.7766 8.7478 19.7099 8.89224 19.7099 9.07002V11.4034C19.7099 11.5811 19.7766 11.7256 19.9099 11.8367C20.0432 11.9478 20.1877 12.0034 20.3432 12.0034C20.4988 12.0034 20.6321 11.9478 20.7432 11.8367C20.8544 11.7256 20.9099 11.5811 20.9099 11.4034V9.07002C20.9099 8.89224 20.8544 8.7478 20.7432 8.63669C20.6321 8.52557 20.4877 8.47002 20.3099 8.47002ZM20.3099 13.1367C20.1766 13.1367 20.0432 13.2034 19.9099 13.3367C19.7766 13.47 19.7099 13.6034 19.7099 13.7367V16.07C19.7099 16.2478 19.7766 16.3922 19.9099 16.5034C20.0432 16.6145 20.1877 16.67 20.3432 16.67C20.4988 16.67 20.6321 16.6145 20.7432 16.5034C20.8544 16.3922 20.9099 16.2478 20.9099 16.07V13.7367C20.9099 13.6034 20.8544 13.47 20.7432 13.3367C20.6321 13.2034 20.4877 13.1367 20.3099 13.1367ZM7.37658 19.07H6.77658V18.5367C6.77658 18.3589 6.72102 18.2145 6.60991 18.1034C6.4988 17.9922 6.35436 17.9367 6.17658 17.9367C5.9988 17.9367 5.85436 17.9922 5.74325 18.1034C5.63213 18.2145 5.57658 18.3589 5.57658 18.5367V19.67C5.57658 19.8478 5.63213 19.9922 5.74325 20.1034C5.85436 20.2145 5.9988 20.27 6.17658 20.27H7.37658C7.50991 20.27 7.63213 20.2145 7.74325 20.1034C7.85436 19.9922 7.90991 19.8589 7.90991 19.7034C7.90991 19.5478 7.85436 19.4034 7.74325 19.27C7.63213 19.1367 7.50991 19.07 7.37658 19.07ZM20.3099 4.93669H19.1766C18.9988 4.93669 18.8544 4.99224 18.7432 5.10335C18.6321 5.21446 18.5766 5.35891 18.5766 5.53668C18.5766 5.71446 18.6321 5.85891 18.7432 5.97002C18.8544 6.08113 18.9988 6.13669 19.1766 6.13669H19.7099V6.73669C19.7099 6.87002 19.7766 6.99224 19.9099 7.10335C20.0432 7.21446 20.1877 7.27002 20.3432 7.27002C20.4988 7.27002 20.6321 7.21446 20.7432 7.10335C20.8544 6.99224 20.9099 6.87002 20.9099 6.73669V5.53668C20.9099 5.35891 20.8544 5.21446 20.7432 5.10335C20.6321 4.99224 20.4877 4.93669 20.3099 4.93669ZM20.3099 17.9367C20.1766 17.9367 20.0432 17.9922 19.9099 18.1034C19.7766 18.2145 19.7099 18.3589 19.7099 18.5367V19.07H19.1766C18.9988 19.07 18.8544 19.1367 18.7432 19.27C18.6321 19.4034 18.5766 19.5478 18.5766 19.7034C18.5766 19.8589 18.6321 19.9922 18.7432 20.1034C18.8544 20.2145 18.9988 20.27 19.1766 20.27H20.3099C20.4877 20.27 20.6321 20.2145 20.7432 20.1034C20.8544 19.9922 20.9099 19.8478 20.9099 19.67V18.5367C20.9099 18.3589 20.8544 18.2145 20.7432 18.1034C20.6321 17.9922 20.4877 17.9367 20.3099 17.9367ZM16.7766 4.93669H16.1766V0.870018C16.1766 0.692242 16.1099 0.547796 15.9766 0.436686C15.8432 0.325575 15.7099 0.270018 15.5766 0.270018H1.50991C1.33213 0.270018 1.18769 0.325575 1.07658 0.436686C0.965468 0.547796 0.909912 0.692242 0.909912 0.870018V14.9367C0.909912 15.07 0.965468 15.2034 1.07658 15.3367C1.18769 15.47 1.33213 15.5367 1.50991 15.5367H5.57658V16.07C5.57658 16.2478 5.63213 16.3922 5.74325 16.5034C5.85436 16.6145 5.9988 16.67 6.17658 16.67C6.35436 16.67 6.4988 16.6145 6.60991 16.5034C6.72102 16.3922 6.77658 16.2478 6.77658 16.07V6.13669H16.7766C16.9544 6.13669 17.0988 6.08113 17.2099 5.97002C17.321 5.85891 17.3766 5.71446 17.3766 5.53668C17.3766 5.35891 17.321 5.21446 17.2099 5.10335C17.0988 4.99224 16.9544 4.93669 16.7766 4.93669ZM14.9766 4.93669H6.17658C5.9988 4.93669 5.85436 4.99224 5.74325 5.10335C5.63213 5.21446 5.57658 5.35891 5.57658 5.53668V14.3367H2.10991V1.47002H14.9766V4.93669Z" fill="#1A1A1A"/>
</svg>
